<!DOCTYPE svg PUBLIC "-//W3C//DTD SVG 1.1//EN" "http://www.w3.org/Graphics/SVG/1.1/DTD/svg11.dtd">
<!-- Uploaded to: SVG Repo, www.svgrepo.com, Transformed by: SVG Repo Mixer Tools -->
<svg height="800px" width="800px" version="1.1" id="Layer_1" xmlns="http://www.w3.org/2000/svg" xmlns:xlink="http://www.w3.org/1999/xlink" viewBox="-51.2 -51.2 614.40 614.40" xml:space="preserve" fill="#a87b00" stroke="#a87b00" stroke-width="1.536">
<g id="SVGRepo_bgCarrier" stroke-width="0" transform="translate(0,0), scale(1)">
<path transform="translate(-51.2, -51.2), scale(19.2)" d="M16,24.498166363098118C18.16634378793815,24.347868971172446,20.269755286150804,24.363125092691632,22.22539152869671,23.419132719629864C24.83271690812464,22.160567747922162,27.978593480272846,21.020074218191677,28.89495278069908,18.273728090198894C29.84744732891973,15.419083942184812,28.7647680995862,12.03732213340948,26.77699174646787,9.777900914122402C24.96040961076582,7.713068913508128,21.79693751450897,8.111120185126032,19.18820497114818,7.240478833177397C16.694792804669895,6.408324634345217,14.542371803585567,4.513560181597141,11.932105524106515,4.823551782758452C8.852798645102865,5.189245994645483,5.056060470893154,6.147998048088956,3.9603685700174758,9.048915552955702C2.857194604648858,11.9696423234041,6.14088712811199,14.601047112932829,7.119246952932,17.565916371206995C7.876192707051837,19.85980164698877,7.100858724674122,22.850002627727843,9.004977280421624,24.336343456335648C10.90063222898633,25.81607765592074,13.600954752470525,24.664608202026436,16,24.498166363098118" fill="#f4dc95" strokewidth="0"/>
</g>
<g id="SVGRepo_tracerCarrier" stroke-linecap="round" stroke-linejoin="round" stroke="#f4dc95" stroke-width="102.4"> <path style="fill:#f4dc95;" d="M256,41.681c-117.76,0-213.222,95.462-213.222,213.222S138.24,468.125,256,468.125 s213.222-95.462,213.222-213.222S373.76,41.681,256,41.681z M256,413.393c-87.531,0-158.49-70.959-158.49-158.49 S168.469,96.413,256,96.413s158.49,70.959,158.49,158.49S343.531,413.393,256,413.393z"/> <path style="fill:#ddb231;" d="M498.147,242.147H482.71c-6.384-114.708-98.293-206.955-212.856-213.884V13.853 C269.853,6.202,263.65,0,256,0c-7.651,0-13.853,6.202-13.853,13.853v14.409C127.583,35.192,35.674,127.439,29.29,242.147H13.853 C6.202,242.147,0,248.349,0,256c0,7.651,6.202,13.853,13.853,13.853h15.575c7.427,113.687,98.886,204.805,212.718,211.69v16.603 c0,7.651,6.202,13.853,13.853,13.853c7.65,0,13.853-6.202,13.853-13.853v-16.603c113.832-6.885,205.291-98.003,212.718-211.69 h15.575c7.65,0,13.853-6.202,13.853-13.853C512,248.349,505.796,242.147,498.147,242.147z M454.949,242.147h-27.078 C421.658,157.63,354.225,89.86,269.853,83.118V56.023C369.132,62.871,448.639,142.722,454.949,242.147z M143.772,269.853 c6.742,50.867,47.357,91.162,98.374,97.417v31.602c-68.351-6.526-122.978-60.815-130.014-129.02H143.772z M269.853,367.28 c24.799-3.012,47.789-14.05,65.813-31.891c18.039-17.857,29.318-40.754,32.571-65.535h31.63 c-7.036,68.204-61.663,122.493-130.014,129.02L269.853,367.28L269.853,367.28z M356.49,242.147c-0.176,0-0.348,0.019-0.524,0.026 c-0.144-0.006-0.285-0.025-0.431-0.026c-0.051,0-0.101,0-0.152,0c-7.582,0-13.768,6.105-13.849,13.704 c-0.504,46.644-38.875,84.592-85.534,84.592c-47.167,0-85.539-38.373-85.539-85.539s38.373-85.539,85.539-85.539 c7.65,0,13.853-6.202,13.853-13.853v-44.578c69.083,6.596,124.135,61.984,130.215,131.214L356.49,242.147L356.49,242.147z M242.147,56.023v86.512c-51.751,6.345-92.807,47.711-98.654,99.612H57.051C63.361,142.722,142.867,62.871,242.147,56.023z M57.19,269.853h27.122c7.209,83.493,74.195,150.15,157.835,156.835v27.093C143.598,446.985,64.521,368.258,57.19,269.853z M269.853,453.782v-27.093c83.64-6.684,150.625-73.343,157.835-156.834h27.122C447.479,368.258,368.402,446.985,269.853,453.782z"/> </g>
<g id="SVGRepo_iconCarrier"> <path style="fill:#f4dc95;" d="M256,41.681c-117.76,0-213.222,95.462-213.222,213.222S138.24,468.125,256,468.125 s213.222-95.462,213.222-213.222S373.76,41.681,256,41.681z M256,413.393c-87.531,0-158.49-70.959-158.49-158.49 S168.469,96.413,256,96.413s158.49,70.959,158.49,158.49S343.531,413.393,256,413.393z"/> <path style="fill:#ddb231;" d="M498.147,242.147H482.71c-6.384-114.708-98.293-206.955-212.856-213.884V13.853 C269.853,6.202,263.65,0,256,0c-7.651,0-13.853,6.202-13.853,13.853v14.409C127.583,35.192,35.674,127.439,29.29,242.147H13.853 C6.202,242.147,0,248.349,0,256c0,7.651,6.202,13.853,13.853,13.853h15.575c7.427,113.687,98.886,204.805,212.718,211.69v16.603 c0,7.651,6.202,13.853,13.853,13.853c7.65,0,13.853-6.202,13.853-13.853v-16.603c113.832-6.885,205.291-98.003,212.718-211.69 h15.575c7.65,0,13.853-6.202,13.853-13.853C512,248.349,505.796,242.147,498.147,242.147z M454.949,242.147h-27.078 C421.658,157.63,354.225,89.86,269.853,83.118V56.023C369.132,62.871,448.639,142.722,454.949,242.147z M143.772,269.853 c6.742,50.867,47.357,91.162,98.374,97.417v31.602c-68.351-6.526-122.978-60.815-130.014-129.02H143.772z M269.853,367.28 c24.799-3.012,47.789-14.05,65.813-31.891c18.039-17.857,29.318-40.754,32.571-65.535h31.63 c-7.036,68.204-61.663,122.493-130.014,129.02L269.853,367.28L269.853,367.28z M356.49,242.147c-0.176,0-0.348,0.019-0.524,0.026 c-0.144-0.006-0.285-0.025-0.431-0.026c-0.051,0-0.101,0-0.152,0c-7.582,0-13.768,6.105-13.849,13.704 c-0.504,46.644-38.875,84.592-85.534,84.592c-47.167,0-85.539-38.373-85.539-85.539s38.373-85.539,85.539-85.539 c7.65,0,13.853-6.202,13.853-13.853v-44.578c69.083,6.596,124.135,61.984,130.215,131.214L356.49,242.147L356.49,242.147z M242.147,56.023v86.512c-51.751,6.345-92.807,47.711-98.654,99.612H57.051C63.361,142.722,142.867,62.871,242.147,56.023z M57.19,269.853h27.122c7.209,83.493,74.195,150.15,157.835,156.835v27.093C143.598,446.985,64.521,368.258,57.19,269.853z M269.853,453.782v-27.093c83.64-6.684,150.625-73.343,157.835-156.834h27.122C447.479,368.258,368.402,446.985,269.853,453.782z"/> </g>
</svg>